<svg width="103" height="23" viewBox="0 0 103 23" fill="none" xmlns="http://www.w3.org/2000/svg">
<path d="M2.752 22.336C2.00533 22.336 1.36133 22.0747 0.82 21.552C0.297333 21.0107 0.036 20.376 0.036 19.648C0.036 18.9013 0.297333 18.2667 0.82 17.744C1.36133 17.2027 2.00533 16.932 2.752 16.932C3.48 16.932 4.10533 17.2027 4.628 17.744C5.16933 18.2667 5.44 18.9013 5.44 19.648C5.44 20.1333 5.31867 20.5813 5.076 20.992C4.83333 21.4027 4.50667 21.7293 4.096 21.972C3.704 22.2147 3.256 22.336 2.752 22.336Z" fill="#C7E36C"/>
<path d="M13.0273 22L19.3833 4.668C19.7007 3.80933 20.2233 3.16533 20.9513 2.736C21.6793 2.288 22.5007 2.064 23.4153 2.064C24.33 2.064 25.1513 2.27867 25.8793 2.708C26.6073 3.11867 27.13 3.76267 27.4473 4.64L33.8313 22H28.7633L27.5313 18.22H19.2153L17.9273 22H13.0273ZM20.4193 14.328H26.3273L23.8353 6.516C23.798 6.404 23.742 6.32933 23.6673 6.292C23.6113 6.236 23.5367 6.208 23.4433 6.208C23.35 6.208 23.266 6.236 23.1913 6.292C23.1353 6.348 23.098 6.42267 23.0793 6.516L20.4193 14.328ZM35.4599 22V13.74C35.4599 12.5453 35.7493 11.4627 36.3279 10.492C36.9066 9.52133 37.7279 8.74667 38.7919 8.168C39.8746 7.58933 41.1533 7.3 42.6279 7.3C44.1213 7.3 45.3906 7.58933 46.4359 8.168C47.4999 8.74667 48.3119 9.52133 48.8719 10.492C49.4319 11.4627 49.7119 12.5453 49.7119 13.74V22H45.3719V13.852C45.3719 13.348 45.2506 12.8907 45.0079 12.48C44.7653 12.0507 44.4293 11.7147 43.9999 11.472C43.5893 11.2107 43.1226 11.08 42.5999 11.08C42.0586 11.08 41.5733 11.2107 41.1439 11.472C40.7333 11.7147 40.4066 12.0507 40.1639 12.48C39.9213 12.8907 39.7999 13.348 39.7999 13.852V22H35.4599ZM52.9599 22V7.636H57.3279V22H52.9599ZM55.1439 6.012C54.4533 6.012 53.8559 5.76 53.3519 5.256C52.8479 4.752 52.5959 4.15467 52.5959 3.464C52.5959 2.77333 52.8479 2.176 53.3519 1.672C53.8559 1.14933 54.4533 0.888 55.1439 0.888C55.8346 0.888 56.4319 1.14933 56.9359 1.672C57.4399 2.176 57.6919 2.77333 57.6919 3.464C57.6919 4.15467 57.4399 4.752 56.9359 5.256C56.4319 5.76 55.8346 6.012 55.1439 6.012ZM60.5068 22V13.516C60.5068 12.34 60.7775 11.2853 61.3188 10.352C61.8788 9.4 62.6721 8.65333 63.6988 8.112C64.7255 7.57067 65.9481 7.3 67.3668 7.3C68.0761 7.3 68.7295 7.384 69.3268 7.552C69.9241 7.70133 70.4655 7.916 70.9508 8.196C71.4548 8.45733 71.8841 8.77467 72.2388 9.148H72.2948C72.6681 8.77467 73.0975 8.45733 73.5828 8.196C74.0868 7.916 74.6375 7.70133 75.2348 7.552C75.8508 7.384 76.5135 7.3 77.2228 7.3C78.6415 7.3 79.8641 7.57067 80.8908 8.112C81.9175 8.65333 82.7108 9.4 83.2708 10.352C83.8308 11.2853 84.1108 12.34 84.1108 13.516V22H79.7428V13.656C79.7428 13.1893 79.6215 12.7693 79.3788 12.396C79.1548 12.004 78.8468 11.6867 78.4548 11.444C78.0628 11.2013 77.6148 11.08 77.1108 11.08C76.6068 11.08 76.1495 11.2013 75.7388 11.444C75.3468 11.6867 75.0388 12.004 74.8148 12.396C74.5908 12.7693 74.4788 13.1893 74.4788 13.656V22H70.1388V13.656C70.1388 13.1893 70.0175 12.7693 69.7748 12.396C69.5508 12.004 69.2335 11.6867 68.8228 11.444C68.4308 11.2013 67.9828 11.08 67.4788 11.08C66.9748 11.08 66.5175 11.2013 66.1068 11.444C65.7148 11.6867 65.4068 12.004 65.1828 12.396C64.9588 12.7693 64.8468 13.1893 64.8468 13.656V22H60.5068ZM94.443 22.336C92.9684 22.336 91.643 22.0093 90.467 21.356C89.291 20.7027 88.3577 19.8067 87.667 18.668C86.995 17.5293 86.659 16.2507 86.659 14.832C86.659 13.3947 86.995 12.116 87.667 10.996C88.3577 9.85733 89.291 8.96133 90.467 8.308C91.643 7.636 92.9684 7.3 94.443 7.3C95.9177 7.3 97.2337 7.636 98.391 8.308C99.567 8.96133 100.491 9.85733 101.163 10.996C101.854 12.116 102.199 13.3947 102.199 14.832C102.199 16.2507 101.854 17.5293 101.163 18.668C100.491 19.8067 99.567 20.7027 98.391 21.356C97.215 22.0093 95.899 22.336 94.443 22.336ZM94.443 18.556C95.1337 18.556 95.731 18.388 96.235 18.052C96.739 17.716 97.131 17.268 97.411 16.708C97.691 16.148 97.831 15.5133 97.831 14.804C97.831 14.1133 97.691 13.488 97.411 12.928C97.131 12.368 96.739 11.92 96.235 11.584C95.731 11.248 95.1337 11.08 94.443 11.08C93.7524 11.08 93.1457 11.248 92.623 11.584C92.119 11.92 91.727 12.368 91.447 12.928C91.167 13.488 91.027 14.1133 91.027 14.804C91.027 15.5133 91.167 16.148 91.447 16.708C91.727 17.268 92.119 17.716 92.623 18.052C93.1457 18.388 93.7524 18.556 94.443 18.556Z" fill="#282828"/>
</svg>
