<svg width="24" height="24" viewBox="0 0 15 15" fill="none" xmlns="http://www.w3.org/2000/svg">
<path fill-rule="evenodd" clip-rule="evenodd" d="M3.6459 11.354C3.55217 11.2602 3.49951 11.1331 3.49951 11.0005C3.49951 10.8679 3.55217 10.7408 3.6459 10.647L10.2929 4H5.9999C5.8673 4 5.74012 3.94732 5.64635 3.85355C5.55258 3.75979 5.4999 3.63261 5.4999 3.5C5.4999 3.36739 5.55258 3.24021 5.64635 3.14645C5.74012 3.05268 5.8673 3 5.9999 3H11.4999C11.6325 3 11.7597 3.05268 11.8535 3.14645C11.9472 3.24021 11.9999 3.36739 11.9999 3.5V9C11.9999 9.13261 11.9472 9.25979 11.8535 9.35355C11.7597 9.44732 11.6325 9.5 11.4999 9.5C11.3673 9.5 11.2401 9.44732 11.1464 9.35355C11.0526 9.25979 10.9999 9.13261 10.9999 9V4.707L4.3539 11.354C4.30746 11.4006 4.25228 11.4375 4.19154 11.4627C4.13079 11.4879 4.06567 11.5009 3.9999 11.5009C3.93414 11.5009 3.86902 11.4879 3.80827 11.4627C3.74753 11.4375 3.69235 11.4006 3.6459 11.354Z" fill="white"/>
</svg>
